<?xml version="1.0" standalone="no"?>
<!DOCTYPE svg PUBLIC "-//W3C//DTD SVG 20010904//EN"
 "http://www.w3.org/TR/2001/REC-SVG-20010904/DTD/svg10.dtd">
<svg version="1.0" xmlns="http://www.w3.org/2000/svg"
 width="623.000000pt" height="594.000000pt" viewBox="0 0 623.000000 594.000000"
 preserveAspectRatio="xMidYMid meet">

<g transform="translate(0.000000,594.000000) scale(0.100000,-0.100000)"
fill="#ffffff" stroke="white">
<path d="M3088 5714 c-5 -4 -65 -11 -135 -15 -173 -11 -234 -18 -258 -29 -41
-18 -146 -22 -810 -26 -413 -2 -691 -8 -709 -14 -16 -6 -42 -10 -57 -10 -15 0
-31 -4 -34 -10 -3 -5 -19 -10 -35 -10 -16 0 -32 -4 -35 -10 -3 -5 -17 -10 -31
-10 -13 0 -24 -4 -24 -10 0 -5 -9 -10 -20 -10 -11 0 -20 -4 -20 -10 0 -5 -5
-10 -11 -10 -11 0 -83 -48 -129 -85 -70 -56 -148 -147 -185 -214 -11 -20 -22
-38 -25 -41 -13 -13 -50 -94 -50 -110 0 -11 -4 -22 -10 -25 -5 -3 -10 -17 -10
-31 0 -13 -4 -32 -9 -42 -20 -38 -28 -271 -25 -737 2 -269 4 -506 5 -525 2
-35 -11 -146 -31 -270 -6 -36 -16 -99 -22 -140 -14 -96 -14 -570 0 -675 18
-130 29 -189 37 -208 4 -10 9 -312 9 -670 2 -420 6 -670 13 -702 22 -103 45
-172 83 -252 32 -66 58 -99 137 -180 108 -108 199 -167 333 -214 128 -45 189
-49 843 -49 478 -1 632 -4 702 -15 50 -8 193 -22 319 -31 198 -15 251 -16 405
-5 97 6 235 21 306 31 118 18 190 20 776 20 407 0 667 4 705 11 130 23 312
107 416 194 93 76 194 234 241 376 33 96 37 200 36 809 l-1 605 32 160 c35
177 49 357 43 555 -5 165 -15 238 -75 513 -25 120 -29 152 -20 168 9 14 12
166 12 586 0 564 0 569 -24 673 -27 119 -50 175 -101 256 -89 139 -225 246
-400 314 -94 37 -181 42 -845 50 -432 5 -675 11 -715 19 -181 35 -581 72 -597
55z m177 -214 c260 -18 559 -81 764 -162 145 -57 403 -197 510 -276 383 -284
636 -577 838 -972 101 -197 196 -488 232 -710 60 -375 27 -785 -93 -1137 -167
-492 -472 -900 -928 -1239 -143 -107 -383 -242 -538 -304 -27 -11 -73 -29
-101 -40 -217 -87 -681 -160 -924 -145 -233 14 -535 70 -715 134 -79 27 -289
119 -330 143 -19 11 -78 45 -130 76 -125 72 -353 238 -454 331 -178 163 -402
448 -509 648 -198 369 -287 729 -287 1163 0 171 17 324 60 531 90 433 322 858
654 1198 104 106 163 156 351 298 116 88 292 189 450 259 243 107 626 194 905
207 36 2 74 4 85 5 11 1 83 -3 160 -8z m-1471 -99 c9 -15 -77 -95 -135 -125
-31 -16 -85 -53 -120 -82 -35 -29 -100 -79 -144 -111 -104 -76 -190 -157 -283
-268 -42 -49 -78 -92 -82 -95 -3 -3 -21 -25 -40 -50 -19 -25 -37 -47 -41 -50
-14 -12 -109 -158 -109 -169 0 -6 -4 -11 -8 -11 -4 0 -15 -12 -24 -27 -9 -16
-35 -48 -57 -71 l-41 -44 0 285 c0 250 2 293 20 363 53 212 184 363 367 425
54 18 100 24 223 29 248 10 468 11 474 1z m3211 -7 c88 -6 187 -35 246 -72 78
-50 179 -152 205 -207 70 -152 83 -237 85 -538 1 -321 -9 -351 -73 -224 -82
164 -298 438 -463 587 -230 209 -344 298 -450 350 -38 19 -78 45 -88 57 -10
12 -26 25 -37 28 -52 17 -5 25 158 27 182 3 295 1 417 -8z m-4265 -3687 c0 -7
13 -28 29 -48 16 -19 41 -56 55 -81 68 -122 176 -259 347 -440 147 -155 340
-308 567 -446 104 -64 113 -72 83 -72 -12 0 -31 -4 -41 -10 -29 -15 -583 7
-640 26 -105 36 -247 128 -298 194 -38 50 -72 121 -101 216 -31 98 -31 98 -31
340 0 245 6 334 21 334 5 0 9 -6 9 -13z m4798 -300 c3 -264 1 -299 -29 -374
-20 -51 -32 -79 -40 -95 -5 -10 -9 -25 -9 -33 0 -27 -156 -180 -218 -213 -119
-63 -161 -70 -452 -75 -268 -5 -370 -1 -370 13 0 4 73 56 163 115 207 138 255
175 404 313 171 158 310 325 472 566 40 59 56 75 64 67 8 -8 13 -96 15 -284z"/>
<path d="M2905 5169 c-271 -41 -467 -95 -679 -188 -140 -61 -174 -80 -321
-179 -346 -234 -610 -543 -790 -925 -69 -148 -89 -203 -130 -363 -53 -204 -68
-345 -62 -559 6 -195 21 -296 68 -475 196 -731 822 -1356 1559 -1553 281 -76
573 -96 833 -58 286 42 560 129 768 245 227 127 464 312 605 473 249 285 416
587 494 893 93 364 89 710 -12 1060 -105 367 -259 640 -528 939 -202 226 -615
497 -898 591 -117 38 -300 78 -441 96 -126 15 -371 17 -466 3z m460 -245 c366
-50 655 -174 962 -413 176 -136 315 -286 433 -468 62 -94 171 -316 210 -428
129 -370 133 -804 10 -1177 -64 -191 -216 -456 -370 -640 -137 -166 -408 -381
-600 -478 -84 -42 -297 -126 -366 -144 -177 -46 -318 -54 -714 -41 -121 3
-356 28 -366 38 -4 4 -14 7 -21 7 -21 0 -219 94 -398 189 -122 65 -138 78
-374 312 -164 164 -196 201 -258 300 -164 265 -227 411 -287 674 -36 160 -55
461 -37 600 57 431 241 808 532 1091 317 306 629 475 1036 559 126 27 331 43
443 37 30 -2 105 -10 165 -18z"/>
<path d="M2946 4639 c-176 -19 -331 -64 -512 -148 -277 -130 -545 -359 -702
-600 -257 -395 -339 -877 -218 -1291 61 -208 185 -443 327 -616 238 -292 605
-501 1016 -580 61 -12 139 -17 253 -17 175 0 307 21 505 78 335 97 685 361
898 677 69 104 162 298 192 403 52 179 68 311 62 510 -4 165 -7 191 -40 315
-47 182 -88 290 -150 399 -90 156 -174 265 -295 383 -181 175 -373 301 -586
383 -163 63 -238 82 -396 100 -145 16 -229 17 -354 4z m459 -239 c214 -46 421
-145 597 -285 125 -99 204 -183 296 -313 125 -175 191 -323 233 -522 29 -135
31 -364 5 -485 -74 -344 -178 -538 -412 -771 -191 -190 -420 -315 -704 -384
-82 -20 -122 -24 -285 -24 -286 -1 -435 33 -676 156 -305 156 -559 432 -683
742 -30 75 -69 236 -87 360 -24 163 5 397 72 592 50 147 63 172 163 319 109
161 241 291 407 401 173 115 313 173 533 220 98 21 130 24 276 20 116 -3 194
-11 265 -26z"/>
<path d="M2074 3641 c2 -3 30 -51 63 -106 33 -55 82 -140 110 -190 40 -74 232
-409 438 -765 20 -36 59 -99 85 -140 44 -71 254 -448 298 -535 11 -22 29 -48
40 -58 20 -18 21 -17 45 15 14 18 43 69 65 113 39 78 122 227 317 570 53 94
136 240 184 325 49 85 113 198 144 251 30 52 83 149 118 215 34 65 74 137 89
159 14 22 41 66 58 98 l32 57 -198 0 -198 0 -64 -117 c-35 -65 -111 -201 -168
-303 -58 -102 -140 -248 -182 -325 -43 -77 -107 -192 -142 -256 -36 -64 -68
-124 -71 -134 -10 -24 -22 -12 -59 58 -19 34 -87 154 -151 266 -65 112 -132
231 -149 265 -17 33 -69 126 -115 205 -46 79 -96 167 -110 195 -14 28 -39 71
-55 96 l-29 45 -199 1 c-110 1 -198 -2 -196 -5z"/>
</g>
</svg>
